<mxfile host="app.diagrams.net" modified="2021-05-25T11:59:24.228Z" agent="5.0 (Macintosh)" etag="HCgYM8bsMyOt1SXOtvi5" version="14.7.0" type="github">
  <diagram id="zRnogB2254eo7cq1ihcv" name="Page-1">
    <mxGraphModel dx="670" dy="1972" grid="0" gridSize="10" guides="1" tooltips="1" connect="1" arrows="1" fold="1" page="1" pageScale="1" pageWidth="827" pageHeight="1169" math="0" shadow="0">
      <root>
        <mxCell id="0" />
        <mxCell id="1" parent="0" />
        <mxCell id="IQnJFdTCfPWkzdvYTakq-2" value="&lt;font style=&quot;font-size: 16px&quot;&gt;&lt;b&gt;Class Diagram&lt;/b&gt;&lt;/font&gt;" style="rounded=1;whiteSpace=wrap;html=1;fillColor=#008a00;strokeColor=#005700;fontColor=#ffffff;" parent="1" vertex="1">
          <mxGeometry x="151" y="-140" width="1142" height="40" as="geometry" />
        </mxCell>
        <mxCell id="IQnJFdTCfPWkzdvYTakq-8" value="Enum Product&#xa;" style="swimlane;fontStyle=1;align=center;verticalAlign=top;childLayout=stackLayout;horizontal=1;startSize=26;horizontalStack=0;resizeParent=1;resizeParentMax=0;resizeLast=0;collapsible=1;marginBottom=0;fillColor=#6a00ff;strokeColor=#3700CC;swimlaneFillColor=#CCE5FF;fontColor=#ffffff;" parent="1" vertex="1">
          <mxGeometry x="147" y="-60" width="160" height="103" as="geometry" />
        </mxCell>
        <mxCell id="IQnJFdTCfPWkzdvYTakq-9" value="HYBRID&#xa;FLATBED&#xa;BOX&#xa;&#xa;" style="text;strokeColor=none;fillColor=none;align=left;verticalAlign=top;spacingLeft=4;spacingRight=4;overflow=hidden;rotatable=0;points=[[0,0.5],[1,0.5]];portConstraint=eastwest;" parent="IQnJFdTCfPWkzdvYTakq-8" vertex="1">
          <mxGeometry y="26" width="160" height="69" as="geometry" />
        </mxCell>
        <mxCell id="IQnJFdTCfPWkzdvYTakq-10" value="" style="line;strokeWidth=1;fillColor=none;align=left;verticalAlign=middle;spacingTop=-1;spacingLeft=3;spacingRight=3;rotatable=0;labelPosition=right;points=[];portConstraint=eastwest;" parent="IQnJFdTCfPWkzdvYTakq-8" vertex="1">
          <mxGeometry y="95" width="160" height="8" as="geometry" />
        </mxCell>
        <mxCell id="IQnJFdTCfPWkzdvYTakq-12" value="Contact" style="swimlane;fontStyle=1;align=center;verticalAlign=top;childLayout=stackLayout;horizontal=1;startSize=26;horizontalStack=0;resizeParent=1;resizeParentMax=0;resizeLast=0;collapsible=1;marginBottom=0;fillColor=#cdeb8b;strokeColor=#36393d;" parent="1" vertex="1">
          <mxGeometry x="362" y="258" width="205" height="209" as="geometry" />
        </mxCell>
        <mxCell id="IQnJFdTCfPWkzdvYTakq-13" value="+ id: Integer&#xa;+ name: String&#xa;+ phoneNumber: String&#xa;+ email: String+ account: Account&#xa;+ opportunities: HashMap&lt;Integer,&#xa;Opportunity&gt;&#xa;+ contactMap: HashMap&lt;Integer,&#xa;Contact&gt;&#xa;&#xa;&#xa;&#xa;" style="text;strokeColor=none;fillColor=none;align=left;verticalAlign=top;spacingLeft=4;spacingRight=4;overflow=hidden;rotatable=0;points=[[0,0.5],[1,0.5]];portConstraint=eastwest;" parent="IQnJFdTCfPWkzdvYTakq-12" vertex="1">
          <mxGeometry y="26" width="205" height="113" as="geometry" />
        </mxCell>
        <mxCell id="IQnJFdTCfPWkzdvYTakq-14" value="" style="line;strokeWidth=1;fillColor=none;align=left;verticalAlign=middle;spacingTop=-1;spacingLeft=3;spacingRight=3;rotatable=0;labelPosition=right;points=[];portConstraint=eastwest;" parent="IQnJFdTCfPWkzdvYTakq-12" vertex="1">
          <mxGeometry y="139" width="205" height="8" as="geometry" />
        </mxCell>
        <mxCell id="IQnJFdTCfPWkzdvYTakq-15" value="+ method(type): type" style="text;strokeColor=none;fillColor=none;align=left;verticalAlign=top;spacingLeft=4;spacingRight=4;overflow=hidden;rotatable=0;points=[[0,0.5],[1,0.5]];portConstraint=eastwest;" parent="IQnJFdTCfPWkzdvYTakq-12" vertex="1">
          <mxGeometry y="147" width="205" height="62" as="geometry" />
        </mxCell>
        <mxCell id="IQnJFdTCfPWkzdvYTakq-24" value="Main" style="swimlane;fontStyle=1;align=center;verticalAlign=top;childLayout=stackLayout;horizontal=1;startSize=26;horizontalStack=0;resizeParent=1;resizeParentMax=0;resizeLast=0;collapsible=1;marginBottom=0;fillColor=#cdeb8b;strokeColor=#36393d;" parent="1" vertex="1">
          <mxGeometry x="919" y="-60" width="160" height="173" as="geometry" />
        </mxCell>
        <mxCell id="IQnJFdTCfPWkzdvYTakq-25" value="+ field: type" style="text;strokeColor=none;fillColor=none;align=left;verticalAlign=top;spacingLeft=4;spacingRight=4;overflow=hidden;rotatable=0;points=[[0,0.5],[1,0.5]];portConstraint=eastwest;" parent="IQnJFdTCfPWkzdvYTakq-24" vertex="1">
          <mxGeometry y="26" width="160" height="73" as="geometry" />
        </mxCell>
        <mxCell id="IQnJFdTCfPWkzdvYTakq-26" value="" style="line;strokeWidth=1;fillColor=none;align=left;verticalAlign=middle;spacingTop=-1;spacingLeft=3;spacingRight=3;rotatable=0;labelPosition=right;points=[];portConstraint=eastwest;" parent="IQnJFdTCfPWkzdvYTakq-24" vertex="1">
          <mxGeometry y="99" width="160" height="8" as="geometry" />
        </mxCell>
        <mxCell id="IQnJFdTCfPWkzdvYTakq-27" value="+ method(type): type" style="text;strokeColor=none;fillColor=none;align=left;verticalAlign=top;spacingLeft=4;spacingRight=4;overflow=hidden;rotatable=0;points=[[0,0.5],[1,0.5]];portConstraint=eastwest;" parent="IQnJFdTCfPWkzdvYTakq-24" vertex="1">
          <mxGeometry y="107" width="160" height="66" as="geometry" />
        </mxCell>
        <mxCell id="IQnJFdTCfPWkzdvYTakq-40" value="Enum Status&#xa;Â " style="swimlane;fontStyle=1;align=center;verticalAlign=top;childLayout=stackLayout;horizontal=1;startSize=26;horizontalStack=0;resizeParent=1;resizeParentMax=0;resizeLast=0;collapsible=1;marginBottom=0;fillColor=#6a00ff;strokeColor=#3700CC;swimlaneFillColor=#CCE5FF;fontColor=#ffffff;" parent="1" vertex="1">
          <mxGeometry x="147" y="104" width="160" height="131" as="geometry" />
        </mxCell>
        <mxCell id="IQnJFdTCfPWkzdvYTakq-41" value="OPEN&#xa;CLOSED_WON&#xa;CLOSED_LOST&#xa;" style="text;strokeColor=none;fillColor=none;align=left;verticalAlign=top;spacingLeft=4;spacingRight=4;overflow=hidden;rotatable=0;points=[[0,0.5],[1,0.5]];portConstraint=eastwest;" parent="IQnJFdTCfPWkzdvYTakq-40" vertex="1">
          <mxGeometry y="26" width="160" height="97" as="geometry" />
        </mxCell>
        <mxCell id="IQnJFdTCfPWkzdvYTakq-42" value="" style="line;strokeWidth=1;fillColor=none;align=left;verticalAlign=middle;spacingTop=-1;spacingLeft=3;spacingRight=3;rotatable=0;labelPosition=right;points=[];portConstraint=eastwest;" parent="IQnJFdTCfPWkzdvYTakq-40" vertex="1">
          <mxGeometry y="123" width="160" height="8" as="geometry" />
        </mxCell>
        <mxCell id="IQnJFdTCfPWkzdvYTakq-44" value="Account" style="swimlane;fontStyle=1;align=center;verticalAlign=top;childLayout=stackLayout;horizontal=1;startSize=26;horizontalStack=0;resizeParent=1;resizeParentMax=0;resizeLast=0;collapsible=1;marginBottom=0;fillColor=#cdeb8b;strokeColor=#36393d;" parent="1" vertex="1">
          <mxGeometry x="672" y="258" width="287" height="234" as="geometry" />
        </mxCell>
        <mxCell id="IQnJFdTCfPWkzdvYTakq-45" value="+ companyName: String&#xa;+ id: Integer&#xa;+ industry: Industry&#xa;+ employeeCount: Integer&#xa;+ city: String&#xa;+ country: String&#xa;+ contactMap: HashMap&lt;Integer, Contact&gt;&#xa;+ opportunityMap: HashMap&lt;Integer, Opportunity&gt;&#xa;+ accountMap: HashMap&lt;Integer, Account&gt;" style="text;strokeColor=none;fillColor=none;align=left;verticalAlign=top;spacingLeft=4;spacingRight=4;overflow=hidden;rotatable=0;points=[[0,0.5],[1,0.5]];portConstraint=eastwest;" parent="IQnJFdTCfPWkzdvYTakq-44" vertex="1">
          <mxGeometry y="26" width="287" height="134" as="geometry" />
        </mxCell>
        <mxCell id="IQnJFdTCfPWkzdvYTakq-46" value="" style="line;strokeWidth=1;fillColor=none;align=left;verticalAlign=middle;spacingTop=-1;spacingLeft=3;spacingRight=3;rotatable=0;labelPosition=right;points=[];portConstraint=eastwest;" parent="IQnJFdTCfPWkzdvYTakq-44" vertex="1">
          <mxGeometry y="160" width="287" height="8" as="geometry" />
        </mxCell>
        <mxCell id="IQnJFdTCfPWkzdvYTakq-47" value="+ addAccount(Integer, Account)&#xa;+ getAccountMap(): HashMap&#xa;" style="text;strokeColor=none;fillColor=none;align=left;verticalAlign=top;spacingLeft=4;spacingRight=4;overflow=hidden;rotatable=0;points=[[0,0.5],[1,0.5]];portConstraint=eastwest;" parent="IQnJFdTCfPWkzdvYTakq-44" vertex="1">
          <mxGeometry y="168" width="287" height="66" as="geometry" />
        </mxCell>
        <mxCell id="IQnJFdTCfPWkzdvYTakq-48" value="Enum Industry&#xa;" style="swimlane;fontStyle=1;align=center;verticalAlign=top;childLayout=stackLayout;horizontal=1;startSize=26;horizontalStack=0;resizeParent=1;resizeParentMax=0;resizeLast=0;collapsible=1;marginBottom=0;fillColor=#6a00ff;strokeColor=#3700CC;swimlaneFillColor=#CCE5FF;fontColor=#ffffff;" parent="1" vertex="1">
          <mxGeometry x="147" y="300" width="160" height="131" as="geometry" />
        </mxCell>
        <mxCell id="IQnJFdTCfPWkzdvYTakq-49" value="PRODUCE&#xa;ECOMMERCE&#xa;MANUFACTURING&#xa;MEDICAL&#xa;OTHER&#xa;" style="text;strokeColor=none;fillColor=none;align=left;verticalAlign=top;spacingLeft=4;spacingRight=4;overflow=hidden;rotatable=0;points=[[0,0.5],[1,0.5]];portConstraint=eastwest;" parent="IQnJFdTCfPWkzdvYTakq-48" vertex="1">
          <mxGeometry y="26" width="160" height="97" as="geometry" />
        </mxCell>
        <mxCell id="IQnJFdTCfPWkzdvYTakq-50" value="" style="line;strokeWidth=1;fillColor=none;align=left;verticalAlign=middle;spacingTop=-1;spacingLeft=3;spacingRight=3;rotatable=0;labelPosition=right;points=[];portConstraint=eastwest;" parent="IQnJFdTCfPWkzdvYTakq-48" vertex="1">
          <mxGeometry y="123" width="160" height="8" as="geometry" />
        </mxCell>
        <mxCell id="IQnJFdTCfPWkzdvYTakq-51" value="FrontEnd" style="swimlane;fontStyle=1;align=center;verticalAlign=top;childLayout=stackLayout;horizontal=1;startSize=26;horizontalStack=0;resizeParent=1;resizeParentMax=0;resizeLast=0;collapsible=1;marginBottom=0;fillColor=#cdeb8b;strokeColor=#36393d;" parent="1" vertex="1">
          <mxGeometry x="1012" y="258" width="253" height="175" as="geometry" />
        </mxCell>
        <mxCell id="IQnJFdTCfPWkzdvYTakq-52" value="+ messageList: HashMap&lt;Integer, String&gt;" style="text;strokeColor=none;fillColor=none;align=left;verticalAlign=top;spacingLeft=4;spacingRight=4;overflow=hidden;rotatable=0;points=[[0,0.5],[1,0.5]];portConstraint=eastwest;" parent="IQnJFdTCfPWkzdvYTakq-51" vertex="1">
          <mxGeometry y="26" width="253" height="63" as="geometry" />
        </mxCell>
        <mxCell id="IQnJFdTCfPWkzdvYTakq-53" value="" style="line;strokeWidth=1;fillColor=none;align=left;verticalAlign=middle;spacingTop=-1;spacingLeft=3;spacingRight=3;rotatable=0;labelPosition=right;points=[];portConstraint=eastwest;" parent="IQnJFdTCfPWkzdvYTakq-51" vertex="1">
          <mxGeometry y="89" width="253" height="8" as="geometry" />
        </mxCell>
        <mxCell id="IQnJFdTCfPWkzdvYTakq-54" value="+ outputMessage()&#xa;+ getUserInput()&#xa;+ mainMenu()*&#xa;&#xa;" style="text;strokeColor=none;fillColor=none;align=left;verticalAlign=top;spacingLeft=4;spacingRight=4;overflow=hidden;rotatable=0;points=[[0,0.5],[1,0.5]];portConstraint=eastwest;" parent="IQnJFdTCfPWkzdvYTakq-51" vertex="1">
          <mxGeometry y="97" width="253" height="78" as="geometry" />
        </mxCell>
        <mxCell id="IQnJFdTCfPWkzdvYTakq-55" value="Lead" style="swimlane;fontStyle=1;align=center;verticalAlign=top;childLayout=stackLayout;horizontal=1;startSize=26;horizontalStack=0;resizeParent=1;resizeParentMax=0;resizeLast=0;collapsible=1;marginBottom=0;fillColor=#cdeb8b;strokeColor=#36393d;" parent="1" vertex="1">
          <mxGeometry x="362" y="-60" width="207" height="247" as="geometry" />
        </mxCell>
        <mxCell id="IQnJFdTCfPWkzdvYTakq-56" value="+ id: Integer&#xa;+ name: String&#xa;+ phoneNumber: String&#xa;+ email: String&#xa;+ companyName: String&#xa;+ leadMap: HashMap&lt;Integer, Lead&gt;&#xa;" style="text;strokeColor=none;fillColor=none;align=left;verticalAlign=top;spacingLeft=4;spacingRight=4;overflow=hidden;rotatable=0;points=[[0,0.5],[1,0.5]];portConstraint=eastwest;" parent="IQnJFdTCfPWkzdvYTakq-55" vertex="1">
          <mxGeometry y="26" width="207" height="109" as="geometry" />
        </mxCell>
        <mxCell id="IQnJFdTCfPWkzdvYTakq-57" value="" style="line;strokeWidth=1;fillColor=none;align=left;verticalAlign=middle;spacingTop=-1;spacingLeft=3;spacingRight=3;rotatable=0;labelPosition=right;points=[];portConstraint=eastwest;" parent="IQnJFdTCfPWkzdvYTakq-55" vertex="1">
          <mxGeometry y="135" width="207" height="8" as="geometry" />
        </mxCell>
        <mxCell id="IQnJFdTCfPWkzdvYTakq-58" value="+ addNewLead()&#xa;+ showLeads()&#xa;+ lookUpLead()&#xa;+ convertToOpportunity(Lead)&#xa;&#xa;&#xa;&#xa;" style="text;strokeColor=none;fillColor=none;align=left;verticalAlign=top;spacingLeft=4;spacingRight=4;overflow=hidden;rotatable=0;points=[[0,0.5],[1,0.5]];portConstraint=eastwest;" parent="IQnJFdTCfPWkzdvYTakq-55" vertex="1">
          <mxGeometry y="143" width="207" height="104" as="geometry" />
        </mxCell>
        <mxCell id="IQnJFdTCfPWkzdvYTakq-59" value="Scan" style="swimlane;fontStyle=1;align=center;verticalAlign=top;childLayout=stackLayout;horizontal=1;startSize=26;horizontalStack=0;resizeParent=1;resizeParentMax=0;resizeLast=0;collapsible=1;marginBottom=0;fillColor=#cdeb8b;strokeColor=#36393d;" parent="1" vertex="1">
          <mxGeometry x="1132" y="-60" width="160" height="86" as="geometry" />
        </mxCell>
        <mxCell id="IQnJFdTCfPWkzdvYTakq-60" value="+ field: type" style="text;strokeColor=none;fillColor=none;align=left;verticalAlign=top;spacingLeft=4;spacingRight=4;overflow=hidden;rotatable=0;points=[[0,0.5],[1,0.5]];portConstraint=eastwest;" parent="IQnJFdTCfPWkzdvYTakq-59" vertex="1">
          <mxGeometry y="26" width="160" height="26" as="geometry" />
        </mxCell>
        <mxCell id="IQnJFdTCfPWkzdvYTakq-61" value="" style="line;strokeWidth=1;fillColor=none;align=left;verticalAlign=middle;spacingTop=-1;spacingLeft=3;spacingRight=3;rotatable=0;labelPosition=right;points=[];portConstraint=eastwest;" parent="IQnJFdTCfPWkzdvYTakq-59" vertex="1">
          <mxGeometry y="52" width="160" height="8" as="geometry" />
        </mxCell>
        <mxCell id="IQnJFdTCfPWkzdvYTakq-62" value="+ method(type): type" style="text;strokeColor=none;fillColor=none;align=left;verticalAlign=top;spacingLeft=4;spacingRight=4;overflow=hidden;rotatable=0;points=[[0,0.5],[1,0.5]];portConstraint=eastwest;" parent="IQnJFdTCfPWkzdvYTakq-59" vertex="1">
          <mxGeometry y="60" width="160" height="26" as="geometry" />
        </mxCell>
        <mxCell id="IQnJFdTCfPWkzdvYTakq-64" value="Opportunity" style="swimlane;fontStyle=1;align=center;verticalAlign=top;childLayout=stackLayout;horizontal=1;startSize=26;horizontalStack=0;resizeParent=1;resizeParentMax=0;resizeLast=0;collapsible=1;marginBottom=0;fillColor=#cdeb8b;strokeColor=#36393d;" parent="1" vertex="1">
          <mxGeometry x="655" y="-60" width="160" height="202" as="geometry" />
        </mxCell>
        <mxCell id="IQnJFdTCfPWkzdvYTakq-65" value="+ id: Integer&#xa;+ product: Product&#xa;+ quantity: Integer&#xa;+ decisionMaker: Contact&#xa;+ status: Status&#xa;+ opportunityMap: HashMap&#xa;&lt;Integer, Opportunity&gt;&#xa;&#xa;&#xa;&#xa;" style="text;strokeColor=none;fillColor=none;align=left;verticalAlign=top;spacingLeft=4;spacingRight=4;overflow=hidden;rotatable=0;points=[[0,0.5],[1,0.5]];portConstraint=eastwest;" parent="IQnJFdTCfPWkzdvYTakq-64" vertex="1">
          <mxGeometry y="26" width="160" height="102" as="geometry" />
        </mxCell>
        <mxCell id="IQnJFdTCfPWkzdvYTakq-66" value="" style="line;strokeWidth=1;fillColor=none;align=left;verticalAlign=middle;spacingTop=-1;spacingLeft=3;spacingRight=3;rotatable=0;labelPosition=right;points=[];portConstraint=eastwest;" parent="IQnJFdTCfPWkzdvYTakq-64" vertex="1">
          <mxGeometry y="128" width="160" height="8" as="geometry" />
        </mxCell>
        <mxCell id="IQnJFdTCfPWkzdvYTakq-67" value="+ setStatus(Status)" style="text;strokeColor=none;fillColor=none;align=left;verticalAlign=top;spacingLeft=4;spacingRight=4;overflow=hidden;rotatable=0;points=[[0,0.5],[1,0.5]];portConstraint=eastwest;" parent="IQnJFdTCfPWkzdvYTakq-64" vertex="1">
          <mxGeometry y="136" width="160" height="66" as="geometry" />
        </mxCell>
        <mxCell id="IQnJFdTCfPWkzdvYTakq-68" value="convert" style="endArrow=block;endFill=1;html=1;align=left;verticalAlign=top;fontSize=16;exitX=1.01;exitY=-0.046;exitDx=0;exitDy=0;exitPerimeter=0;entryX=-0.006;entryY=0.064;entryDx=0;entryDy=0;entryPerimeter=0;" parent="1" source="IQnJFdTCfPWkzdvYTakq-56" target="IQnJFdTCfPWkzdvYTakq-64" edge="1">
          <mxGeometry x="-0.3556" y="7" relative="1" as="geometry">
            <mxPoint x="638" y="139" as="sourcePoint" />
            <mxPoint x="798" y="139" as="targetPoint" />
            <mxPoint as="offset" />
          </mxGeometry>
        </mxCell>
        <mxCell id="IQnJFdTCfPWkzdvYTakq-69" value="1" style="edgeLabel;resizable=0;html=1;align=left;verticalAlign=bottom;" parent="IQnJFdTCfPWkzdvYTakq-68" connectable="0" vertex="1">
          <mxGeometry x="-1" relative="1" as="geometry" />
        </mxCell>
        <mxCell id="IQnJFdTCfPWkzdvYTakq-70" value="1" style="edgeLabel;resizable=0;html=1;align=left;verticalAlign=bottom;" parent="1" connectable="0" vertex="1">
          <mxGeometry x="581.0699999999999" y="-29.013999999999896" as="geometry">
            <mxPoint x="57" y="-21" as="offset" />
          </mxGeometry>
        </mxCell>
        <mxCell id="IQnJFdTCfPWkzdvYTakq-71" value="" style="endArrow=block;endFill=1;html=1;align=left;verticalAlign=top;fontSize=16;exitX=0.431;exitY=0.985;exitDx=0;exitDy=0;exitPerimeter=0;" parent="1" source="IQnJFdTCfPWkzdvYTakq-67" target="IQnJFdTCfPWkzdvYTakq-12" edge="1">
          <mxGeometry x="-1" relative="1" as="geometry">
            <mxPoint x="737" y="163" as="sourcePoint" />
            <mxPoint x="897" y="163" as="targetPoint" />
          </mxGeometry>
        </mxCell>
        <mxCell id="IQnJFdTCfPWkzdvYTakq-72" value="1-n" style="edgeLabel;resizable=0;html=1;align=left;verticalAlign=bottom;" parent="IQnJFdTCfPWkzdvYTakq-71" connectable="0" vertex="1">
          <mxGeometry x="-1" relative="1" as="geometry">
            <mxPoint x="-33" y="13" as="offset" />
          </mxGeometry>
        </mxCell>
        <mxCell id="IQnJFdTCfPWkzdvYTakq-73" value="1" style="edgeLabel;resizable=0;html=1;align=left;verticalAlign=bottom;" parent="1" connectable="0" vertex="1">
          <mxGeometry x="584.9999999999998" y="257.9960000000001" as="geometry" />
        </mxCell>
        <mxCell id="IQnJFdTCfPWkzdvYTakq-74" value="" style="endArrow=block;endFill=1;html=1;align=left;verticalAlign=top;fontSize=16;entryX=0.003;entryY=0.072;entryDx=0;entryDy=0;entryPerimeter=0;exitX=1.007;exitY=0.101;exitDx=0;exitDy=0;exitPerimeter=0;" parent="1" source="IQnJFdTCfPWkzdvYTakq-12" target="IQnJFdTCfPWkzdvYTakq-44" edge="1">
          <mxGeometry x="-1" relative="1" as="geometry">
            <mxPoint x="733.96" y="127.02600000000007" as="sourcePoint" />
            <mxPoint x="575.5996908742975" y="268" as="targetPoint" />
          </mxGeometry>
        </mxCell>
        <mxCell id="IQnJFdTCfPWkzdvYTakq-76" value="1-n" style="edgeLabel;resizable=0;html=1;align=left;verticalAlign=bottom;" parent="1" connectable="0" vertex="1">
          <mxGeometry x="572.9999999999998" y="296.9960000000001" as="geometry" />
        </mxCell>
        <mxCell id="IQnJFdTCfPWkzdvYTakq-77" value="1" style="edgeLabel;resizable=0;html=1;align=left;verticalAlign=bottom;" parent="1" connectable="0" vertex="1">
          <mxGeometry x="654.9999999999998" y="290.9960000000001" as="geometry" />
        </mxCell>
        <mxCell id="IQnJFdTCfPWkzdvYTakq-78" value="Use" style="endArrow=open;endSize=12;dashed=1;html=1;fontSize=16;edgeStyle=orthogonalEdgeStyle;" parent="1" source="IQnJFdTCfPWkzdvYTakq-41" target="IQnJFdTCfPWkzdvYTakq-67" edge="1">
          <mxGeometry width="160" relative="1" as="geometry">
            <mxPoint x="331" y="216" as="sourcePoint" />
            <mxPoint x="491" y="216" as="targetPoint" />
            <Array as="points">
              <mxPoint x="735" y="199" />
            </Array>
          </mxGeometry>
        </mxCell>
        <mxCell id="IQnJFdTCfPWkzdvYTakq-79" value="Use" style="endArrow=open;endSize=12;dashed=1;html=1;fontSize=16;edgeStyle=orthogonalEdgeStyle;entryX=0.5;entryY=0;entryDx=0;entryDy=0;exitX=1;exitY=0;exitDx=0;exitDy=0;" parent="1" source="IQnJFdTCfPWkzdvYTakq-48" target="IQnJFdTCfPWkzdvYTakq-44" edge="1">
          <mxGeometry width="160" relative="1" as="geometry">
            <mxPoint x="317" y="209" as="sourcePoint" />
            <mxPoint x="745" y="123" as="targetPoint" />
            <Array as="points">
              <mxPoint x="333" y="300" />
              <mxPoint x="333" y="234" />
              <mxPoint x="816" y="234" />
            </Array>
          </mxGeometry>
        </mxCell>
        <mxCell id="IQnJFdTCfPWkzdvYTakq-80" value="Use" style="endArrow=open;endSize=12;dashed=1;html=1;fontSize=16;edgeStyle=orthogonalEdgeStyle;entryX=0.5;entryY=0;entryDx=0;entryDy=0;exitX=0.5;exitY=0;exitDx=0;exitDy=0;" parent="1" source="IQnJFdTCfPWkzdvYTakq-8" target="IQnJFdTCfPWkzdvYTakq-64" edge="1">
          <mxGeometry width="160" relative="1" as="geometry">
            <mxPoint x="204" y="-17" as="sourcePoint" />
            <mxPoint x="712.5" y="-59" as="targetPoint" />
            <Array as="points">
              <mxPoint x="227" y="-83" />
              <mxPoint x="735" y="-83" />
            </Array>
          </mxGeometry>
        </mxCell>
        <mxCell id="IQnJFdTCfPWkzdvYTakq-81" value="name" style="endArrow=block;endFill=1;html=1;edgeStyle=orthogonalEdgeStyle;align=left;verticalAlign=top;fontSize=16;entryX=0.75;entryY=0;entryDx=0;entryDy=0;" parent="1" source="IQnJFdTCfPWkzdvYTakq-65" target="IQnJFdTCfPWkzdvYTakq-44" edge="1">
          <mxGeometry x="-1" relative="1" as="geometry">
            <mxPoint x="680" y="135" as="sourcePoint" />
            <mxPoint x="840" y="135" as="targetPoint" />
          </mxGeometry>
        </mxCell>
        <mxCell id="IQnJFdTCfPWkzdvYTakq-82" value="1" style="edgeLabel;resizable=0;html=1;align=left;verticalAlign=bottom;" parent="IQnJFdTCfPWkzdvYTakq-81" connectable="0" vertex="1">
          <mxGeometry x="-1" relative="1" as="geometry">
            <mxPoint x="78" y="245" as="offset" />
          </mxGeometry>
        </mxCell>
        <mxCell id="IQnJFdTCfPWkzdvYTakq-83" value="1-n" style="edgeLabel;resizable=0;html=1;align=left;verticalAlign=bottom;" parent="1" connectable="0" vertex="1">
          <mxGeometry x="818" y="-0.00428571428574287" as="geometry" />
        </mxCell>
      </root>
    </mxGraphModel>
  </diagram>
</mxfile>
